<?xml version="1.0" encoding="UTF-8"?>
<svg xmlns="http://www.w3.org/2000/svg" viewBox="0 0 202 205">
  <defs>
    <style>
      .cls-1 {
        fill: none;
        stroke: #fff;
      }

      .cls-1, .cls-2 {
        stroke-miterlimit: 10;
        stroke-width: 3px;
      }

      .cls-2 {
        fill: #d1114d;
        stroke: #d1114d;
      }
    </style>
  </defs>
  <g id="Lag_1" data-name="Lag 1">
    <path class="cls-1" d="m100.25,66.86c122.76,0,93.75-57.36,93.75-57.36H6.5s-20.5,57.36,93.75,57.36Z"/>
    <path class="cls-1" d="m53.5,190.5c49,0,46.75-16.89,46.75-16.89v-106.75"/>
    <path class="cls-1" d="m100.25,173.61s-2.75,16.89,46.15,16.89"/>
    <path class="cls-1" d="m53.5,190.36s46.8,19.44,92.9,0"/>
  </g>
  <g id="Lag_2" data-name="Lag 2">
    <path class="cls-2" d="m8.07,21.5c25.57-10.8,39.55-8.05,47.68-3,5.57,3.46,7.1,7.18,13.62,9,12.28,3.43,20.36-6.01,34.06-9,17.54-3.83,19,9.71,37.95,8,15.66-1.41,20.87-10.18,35.03-8,7.89,1.21,13.86,5.1,17.52,8,0,0,5.84,37.98-92.93,37.98S8.07,21.5,8.07,21.5Z"/>
  </g>
</svg>